/* XPM */
static char *_4841cf2dd944900aea2c891ab3ee0a70NFlLi2wM5xputKk[] = {
/* columns rows colors chars-per-pixel */
"32 32 210 2 ",
"   c None",
".  c #000101",
"X  c #0D0301",
"o  c #120500",
"O  c #1C0700",
"+  c #130A05",
"@  c #1C0A02",
"#  c #130E08",
"$  c #1B130B",
"%  c #191511",
"&  c #171512",
"*  c #210C02",
"=  c #280C01",
"-  c #340F00",
";  c #2A1205",
":  c #22130A",
">  c #24180C",
",  c #2D190A",
"<  c #291308",
"1  c #331404",
"2  c #341B0C",
"3  c #3C1B0B",
"4  c #371705",
"5  c #231E1A",
"6  c #341E13",
"7  c #37210D",
"8  c #2F2015",
"9  c #312116",
"0  c #3D2314",
"q  c #372519",
"w  c #382518",
"e  c #3B2B20",
"r  c #421C07",
"t  c #541A02",
"y  c #5F1C00",
"u  c #621F03",
"i  c #41210F",
"p  c #442717",
"a  c #563B1F",
"s  c #6E2503",
"d  c #6D2904",
"f  c #732604",
"g  c #752A06",
"h  c #7C2B06",
"j  c #782D0B",
"k  c #7E330F",
"l  c #763113",
"z  c #4F292B",
"x  c #742F22",
"c  c #6E302B",
"v  c #7F3725",
"b  c #682924",
"n  c #67431E",
"m  c #7C4918",
"M  c #684520",
"N  c #774D23",
"B  c #7B532B",
"V  c #775129",
"C  c #7F5A32",
"Z  c #745C44",
"A  c #842C04",
"S  c #8D2C03",
"D  c #872700",
"F  c #902F04",
"G  c #8B3206",
"H  c #84330A",
"J  c #8B3409",
"K  c #8C3B0E",
"L  c #953306",
"P  c #9C3D0B",
"I  c #94390A",
"U  c #8A3B11",
"Y  c #8D3E19",
"T  c #843A15",
"R  c #813328",
"E  c #9C410E",
"W  c #864D18",
"Q  c #944113",
"!  c #96471B",
"~  c #995516",
"^  c #A5440E",
"/  c #A9450F",
"(  c #AA4610",
")  c #AC4A12",
"_  c #A24A15",
"`  c #B04C13",
"'  c #A4541E",
"]  c #AE5119",
"[  c #A75A1A",
"{  c #B5551A",
"}  c #B55D1D",
"|  c #BB5E1E",
" . c #B95515",
".. c #AE601F",
"X. c #BA611F",
"o. c #854020",
"O. c #954B29",
"+. c #984B21",
"@. c #895827",
"#. c #995D26",
"$. c #87493D",
"%. c #865E33",
"&. c #A25E23",
"*. c #A25323",
"=. c #BE5F21",
"-. c #B75B26",
";. c #A65A39",
":. c #94602E",
">. c #9B6836",
",. c #9D6535",
"<. c #BB6627",
"1. c #BB742B",
"2. c #AB6D3B",
"3. c #BE6C35",
"4. c #AE6F30",
"5. c #C55D1B",
"6. c #CD631F",
"7. c #C5671F",
"8. c #C36521",
"9. c #CC6521",
"0. c #CB6B23",
"q. c #C3672A",
"w. c #D16720",
"e. c #D56B22",
"r. c #D86B22",
"t. c #CA7225",
"y. c #C6782A",
"u. c #D17323",
"i. c #DB7224",
"p. c #D77929",
"a. c #C77336",
"s. c #C9763A",
"d. c #D0753B",
"f. c #C66731",
"g. c #E27526",
"h. c #E37927",
"j. c #9D5146",
"k. c #9D4F50",
"l. c #8C6848",
"z. c #9C6F4C",
"x. c #9A7C5C",
"c. c #AC7543",
"v. c #A57441",
"b. c #A77B51",
"n. c #BA6B72",
"m. c #CE7C40",
"M. c #DA7E7D",
"N. c #E27F7F",
"B. c #DD822B",
"V. c #C6823C",
"C. c #EC8426",
"Z. c #E78329",
"A. c #EC8B29",
"S. c #E78529",
"D. c #F18D2B",
"F. c #F4922D",
"G. c #FA942D",
"H. c #E78A35",
"J. c #F49438",
"K. c #E79D28",
"L. c #EEA32A",
"P. c #E5A028",
"I. c #F4AC2D",
"U. c #F6AA2D",
"Y. c #FBB62F",
"T. c #FBBA2F",
"R. c #F7B92F",
"E. c #EAB13E",
"W. c #FFBD30",
"Q. c #F7B03B",
"!. c #F9A23C",
"~. c #FFC030",
"^. c #B3824D",
"/. c #B4855A",
"(. c #9E8163",
"). c #B38D67",
"_. c #AD8E75",
"`. c #B18D72",
"'. c #BA9774",
"]. c #BB956C",
"[. c #D58247",
"{. c #D2975A",
"}. c #EE9A45",
"|. c #F39A44",
" X c #E48D43",
".X c #E7B25C",
"XX c #C19266",
"oX c #C39774",
"OX c #D6A775",
"+X c #DAA779",
"@X c #7A9B8E",
"#X c #B59A84",
"$X c #86A7A8",
"%X c #97B8B6",
"&X c #C09E81",
"*X c #D68991",
"=X c #E08390",
"-X c #F39097",
";X c #CDA787",
":X c #D5AC80",
">X c #DDBA9D",
",X c #DEB487",
"<X c #E5B288",
"1X c #E4BB96",
"2X c #F5BC83",
"3X c #E7C19D",
"4X c #F2C79C",
"5X c #E3C7A9",
"6X c #90C5C9",
"7X c #A5D9D3",
/* pixels */
"                                                                ",
"                                                                ",
"                  3.                                            ",
"                  1Xa.                                          ",
"                  4X}. .F L L S                                 ",
"                ` |.2XH. .6.6.) A *                             ",
"              X.^ e.H.u.i.g.g.e.{ g O o                         ",
"            I L.S./ 9.F.L.C.C.h.e.( h y O O                     ",
"          R +.P.A.8.A.K.&.O.+.h.i.=._ 4 f E L S h ;             ",
"  8.D.G.8.$.$X;.f.f.9.,.6X6X@X' r.r.) J | A.A.8.X...<.X.L D D   ",
"    t.I.L.2.$X*X-XN.;.%X7X.XE.A.g.e.| | D.W.W.T.R.T.I.S.] S     ",
"      t.B.O.s.j.=Xk.M.[.}.U.i.0.w. .9.8.D.T.~.W.T.Y.A.8.L       ",
"        v 3 ! p n.z n.s.8.[ h r _ { / A _ A.G.A.<.[ P           ",
"            x , c b $._.9 + O h ] ^ f O 1 ) 8. .J 1             ",
"              k @ X + & . . , { / f = : g w.F.I.u.J             ",
"              x : & . . & , ] ( f - g z.U w.G.W.U.7.1           ",
"                +.`.9 8 `.<.E f - f +.b.i I i.G.G.i.Q ;         ",
"                  -.=.' Y U * = H d.+X3.f ; I e.g.D.e.P         ",
"                      * > l.q T  X<X[.Z.J O * K | U.i.G         ",
"                        # B x.>X<Xm.D.D.] u X q /.|.8.;         ",
"                          + e #XO.6.C.| g O > (.5X1X*.@         ",
"                    #.d O X t 9 2 ! } H ; + V ].5X'.@.          ",
"                  @._.0 t : @ B ).;X,.I m 7 @.>.).C >           ",
"          G L G , > 6 t 0 Z p a.3XoXv.u.A.u.0.Q N >             ",
"    G [ 1.y.C.A.p.&.s , Z a u.J.1Xb.:X!.T.Y.A.W :               ",
"  Q &.S.F.G.G.F.y.~ s o 0 t.G.p.XX>.2.I.T.Y.0.,                 ",
"Q OX+X{.J.G.D.y...g *   A w.C._ /.:.U H.} Z.<.;                 ",
"#.OX^.+XV.1.1.W g *       P 5.H #.N w '.p T oXl                 ",
"H c.v.OX1.~ m : X           f r n $ # %.M ; l 3                 ",
"* l 2.,.W d *           $ + 0 ' 2 . + n : o J u.^               ",
"  * h h * o           & l.o.;XH.g X   #   @ } Q.B.!             ",
"                                          o Y ,X^.&X5           "
};
