/* XPM */
static char *_7154f5481b9496b8749b2bcf9f49352LxFMp16JAWcqx4qh[] = {
/* columns rows colors chars-per-pixel */
"32 32 172 2 ",
"   c None",
".  c #010100",
"X  c #0C0502",
"o  c #0D0B09",
"O  c #0C0907",
"+  c #110601",
"@  c #190700",
"#  c #140C04",
"$  c #1B0A01",
"%  c #120B0A",
"&  c #1F1104",
"*  c #1A130B",
"=  c #191511",
"-  c #220C02",
";  c #251105",
":  c #2C1306",
">  c #21150D",
",  c #2B1C0D",
"<  c #361C0A",
"1  c #291E18",
"2  c #27211A",
"3  c #392518",
"4  c #392D25",
"5  c #6E1F00",
"6  c #701F00",
"7  c #6F2407",
"8  c #732101",
"9  c #7C2A04",
"0  c #7A3028",
"q  c #6F4920",
"w  c #764D22",
"e  c #7F5427",
"r  c #862600",
"t  c #842A03",
"y  c #8B2B03",
"u  c #8E2D0A",
"i  c #882701",
"p  c #902D04",
"a  c #8D3106",
"s  c #8A320B",
"d  c #943306",
"f  c #933509",
"g  c #9D3B0A",
"h  c #993909",
"j  c #853819",
"k  c #923A12",
"l  c #85352B",
"z  c #863529",
"x  c #8B3B33",
"c  c #853831",
"v  c #8F4D0F",
"b  c #9C400E",
"n  c #904D0F",
"m  c #935514",
"M  c #9A5C19",
"N  c #AD470F",
"B  c #A54611",
"V  c #AB4610",
"C  c #AE4911",
"Z  c #B14B12",
"A  c #AD551C",
"S  c #B3571C",
"D  c #B55A1F",
"F  c #B95D1F",
"G  c #BF6016",
"H  c #814F21",
"J  c #865828",
"K  c #9C4929",
"L  c #AF5320",
"P  c #B65C21",
"I  c #BA5E21",
"U  c #BB5F2A",
"Y  c #8E602F",
"T  c #94612D",
"R  c #976632",
"E  c #9F6936",
"W  c #956638",
"Q  c #9E703F",
"!  c #A16328",
"~  c #BD6221",
"^  c #B56629",
"/  c #B4702D",
"(  c #BE6E37",
")  c #A2723E",
"_  c #B97732",
"`  c #B27A3C",
"'  c #CE611C",
"]  c #C46622",
"[  c #CB6522",
"{  c #C76B24",
"}  c #CA6924",
"|  c #CE6F2D",
" . c #D46A24",
".. c #DB6E24",
"X. c #C77926",
"o. c #C47021",
"O. c #DE7126",
"+. c #DE7825",
"@. c #C47B30",
"#. c #C2733E",
"$. c #DD7937",
"%. c #E27427",
"&. c #E67927",
"*. c #E47D28",
"=. c #9E7E5D",
"-. c #927657",
";. c #A07241",
":. c #A37B57",
">. c #D78127",
",. c #EB8627",
"<. c #EA8628",
"1. c #F38D2C",
"2. c #F4922C",
"3. c #FC952E",
"4. c #FE9A2E",
"5. c #F49536",
"6. c #F99836",
"7. c #F9A82D",
"8. c #F8B32D",
"9. c #FBBD2F",
"0. c #FFBE30",
"q. c #F3B532",
"w. c #90D13E",
"e. c #FBC12F",
"r. c #FEC330",
"t. c #F6C237",
"y. c #A6815D",
"u. c #B48450",
"i. c #AA8761",
"p. c #B68C65",
"a. c #BC9169",
"s. c #BF9971",
"d. c #C68E53",
"f. c #F19E46",
"g. c #C59563",
"h. c #CA9F76",
"j. c #DFAA7E",
"k. c #9FD944",
"l. c #A2E448",
"z. c #AEE64C",
"x. c #AEEF50",
"c. c #B2F752",
"v. c #BAF855",
"b. c #C8FB57",
"n. c #D07989",
"m. c #57B1C3",
"M. c #BDA590",
"N. c #F2919F",
"B. c #CBA984",
"V. c #DCB896",
"C. c #D4AA88",
"Z. c #E7BC8D",
"A. c #E1B381",
"S. c #FB9AA9",
"D. c #F698A6",
"F. c #CEBCA6",
"G. c #DEBCA0",
"H. c #E3BFA2",
"J. c #EFC496",
"K. c #F0C496",
"L. c #DBC3AA",
"P. c #E4C6A6",
"I. c #F0C9A4",
"U. c #F1D0AF",
"Y. c #EACEB2",
"T. c #E1CBB2",
"R. c #EFD7BD",
"E. c #F2D2B1",
"W. c #F1D4B8",
"Q. c #8DD9E3",
"!. c #8EE2EE",
"~. c #8CE9F9",
/* pixels */
"z.z.k.l.l.l.c.c.c.k.l.x.c.c.c.c.c.b.v.l.l.v.b.b.v.l.z.l.l.k.l.c.",
"l.k.w.k.w.w.l.x.l.k.z.v.v.v.c.c.c.l.k.k.c.v.v.b.v.l.w.w.k.k.w.k.",
"x.x.z.k.w.w.l.v.v.P   b.b.v.v.b.v.l.z.k.z.z.z.l.z.x.c.x.l.w.w.k.",
"z.z.x.v.w.w.k.v.b.R.^   v.v.v.c.v.v.v.v.x.z.x.z.x.z.z.z.v.x.w.l.",
"x.z.k.w.w.w.l.z.b.R.6.C i r r r   v.b.b.b.v.x.x.v.x.x.k.w.k.w.k.",
"l.l.k.w.w.k.z.k.V 2.W.6.N ..O.V i +   b.v.z.l.l.x.x.k.l.w.k.w.z.",
"x.c.v.x.z.x.z.P r ..3.~ ..O.O.O.P i + .   v.z.v.z.l.x.v.x.x.x.x.",
"l.c.v.v.v.k.i 9.4.y D 2.r.4.4.%.O.V i r + .   z.z.l.x.v.v.v.x.z.",
"v.c.c.v.l.l r e.4.P 2.r.d i i 1.%.P P $ 8 g i r r @   x.x.v.x.k.",
"l.P 4.4.P z !.s F F %.p Q.!.m.j ..O.C i A 1.2.~ D S P D a r r   ",
"l.  P r.r.P m.D.S.S.u Q.~.f.t.3.%.%.P D 1.0.r.e.9.9.e.4.] a     ",
"x.z.  ~ 4.z 5.x S.x N.$.6.r.*.%.%.Z ..I 2.0.r.r.r.r.7.{ f     w.",
"v.z.x.  z X ~ X D.% n.I %.] d $ b D C y N 2.4.4.{ ~ f       z.l.",
"v.b.b.b.    z . c 0 l Y.> X X 8 S C p $ X b F Z y -     b.b.b.x.",
"b.b.b.b.b.b.  b + X X = . . . [ C y $ . 5 [ 1.8.+.y   b.b.b.b.c.",
"z.k.l.l.z.v.c.z . . . . . . ~ Z p $ 6 y.s  .2.0.9.+.:   l.z.l.x.",
"v.z.k.k.k.c.v.  h L.o . F.| Z p $ 8 r p.> b ..3.4.%.B -   k.l.c.",
"v.c.l.v.c.x.v.v.  L [ } k p $ X 5 ' H.( t - b ..%.1.%.B   v.v.x.",
"v.c.c.c.c.k.z.c.x.    ; + i.% 5 ,.I.#.1.d + + b N 8.*.h   k.l.z.",
"v.v.c.c.c.c.l.k.c.c.v.  . Y i.H.E.#.1.4.I t + + :.5.&.<   b.v.z.",
"c.v.v.x.x.k.k.w.l.c.b.v.  # * T.K  .2.{ f - . -.P.U.U $   b.b.b.",
"z.v.c.v.v.l.w.w.w.x.m t X . 8 1 + t I f - . q p.Y.B.E     b.z.v.",
"z.v.v.c.c.v.l.w.l.m P.> 8 X + w y.G.E y H # e R s.) ,   k.k.k.z.",
"c.v.x.x.l.r r r X # 2 8 $ =.o ] P.B.R [ <.]  .f T ,     l.z.l.k.",
"v.v.i m / ^ ,.,.>.! 8 $ =.2 X.1.E.;.V.6.9.9.3.! ,     w.w.w.k.l.",
"v.i v <.2.2.4.4.@.M i X = X.3.&.h.R Q q.r.r.,.<     k.l.x.c.x.x.",
"u j.A.d.4.4.4.@._ a $   5 O.4.g a.R s 2.G 2.} $   z.v.v.v.c.x.x.",
"n K.) Z.@.@.@.M f $       d %.y R T ; V.3 a V.j   v.v.v.c.x.w.w.",
"y g.T J._ M M & $     b.k.  f - J , . W e ; j :   l.w.k.l.l.z.v.",
"@ k u.) M a &       x.w.X X @ A , . . J , . 8 o.f   k.w.w.w.l.v.",
"  @ k s & $     b.b.x.O -.7 M.5.9 X   *   . S 8.<.g   c.z.l.l.x.",
"x.            b.b.b.k.                    . t Z.` C.4   z.w.l.w."
};
