/* XPM */
static char *_0e2334fc1304d7684e8245b065cd78cwDnnP15zei5Sa6fd[] = {
/* columns rows colors chars-per-pixel */
"32 32 12 1 ",
"  c #030101",
". c #2B1E0F",
"X c #634422",
"o c #508040",
"O c #90D13E",
"+ c #9FD944",
"@ c #A2E448",
"# c #AEE64C",
"$ c #AEEF50",
"% c #B2F752",
"& c #BAF855",
"* c #C8FB57",
/* pixels */
"##+@@@%%%+@$%%%%%*&@@&**&@#@@+@%",
"@+O+OO@$@+#&&&%%%@++%&&*&@OO++O+",
"$$#+OO@&&****&&*&@#+###@#$%$@OO+",
"##$&OO+&****&&&%&&&&$#$#$###&$O@",
"$#+OOO@#****++$$&&***&$$&$$+O+O+",
"@@+OO+#+&**#++#$&***&#@@$$+@O+O#",
"$%&$#$#@$+%%&&&&&%***&#&#@$&$$$$",
"@%&&&+%&@&&&%%%%&&&#OO###@$&&&$#",
"&%%&@O$&$$$%&oooooo###&$$&&$$&$+",
"@+OO+@%%&+#ooXXooXXoo$#$#@+OOO+@",
"@@@@+O+$OooXXXXXoXXXXoo&&@@@@@++",
"$#@++OOOooXXXXXXXXXXXoXo&O####OO",
"&#$#@@@oXXXXXXXXXXXXoXXXo#&&###@",
"&****%oXXXXXXX....XXXXXXoo*****$",
"******oXXXX..........XXXXo*****%",
"#+@@#ooXX....      ....XXXo#@#@$",
"&#+++oXX..            ..XXo@++@%",
"&%@&%oX..              ..Xo+$&&$",
"&%%%%o..                ..o+++@#",
"&&%%%o.                  .o***&#",
"%&&$$o                    o*****",
"#&%&&o                    o***#&",
"#&&%%&o                  oO++++#",
"%&$$@$Oo                oO@@@#@+",
"&&&&@+@Oo              o#++OOO+@",
"&&&&$O#@+o            o&$@+@$%$$",
"$%&%%O###*ooo      ooo%&##&&&%$$",
"@+&%%O##+***&oooooo&&$$$#&&&%$OO",
"O@$%%#$+&*&*++&&%@#+#+#++@O+@@#&",
"@#%$&$****$O++##@+$#**%O+O+OOO@&",
"OO&&#$&***$###+#$@&****%+O$%#@@$",
"$###*+&***+#+#+%&******&+&&&#O@O"
};
