/* XPM */
static char *_9b42f55aa2546ed8581c72f9ec38b66W0vh3ygRnBAlmRAc[] = {
/* columns rows colors chars-per-pixel */
"32 32 12 1 ",
"  c #030101",
". c #2B1E0F",
"X c #634422",
"o c #508040",
"O c #90D13E",
"+ c #9FD944",
"@ c #A2E448",
"# c #AEE64C",
"$ c #AEEF50",
"% c #B2F752",
"& c #BAF855",
"* c #C8FB57",
/* pixels */
"##+@@@%%%+@$%%%%%*&@@&**&@#@@+@%",
"@+O+OO@$@+#&&&%%%@++%&&*&@OO++O+",
"$$#+OO@&&****&&*&@#+###@#$%$@OO+",
"##$&OO+&****&&&%&&&&$#$#$###&$O@",
"$#+OOO@#****++$$&&***&$$&$$+O+O+",
"@@+OO+#+&**#++oooo**&#@@$$+@O+O#",
"$%&$#$#@$+%oooXXXXooo&#&#@$&$$$$",
"@%&&&+%&@&ooXXXXXXXXoo###@$&&&$#",
"&%%&@O$&$oXXXX....XXXXo$$&&$$&$+",
"@+OO+@%%oXXX........XXXo#@+OOO+@",
"@@@@+O+oXXX....  ....XXXo@@@@@++",
"$#@++OooXX...      ...XXoo####OO",
"&#$#@@oXX...        ...XXo&&###@",
"&****%oXX..          ..XXo*****$",
"*****oXX...          ...XXo****%",
"#+@@#oXX..            ..XXo#@#@$",
"&#+++oXX..            ..XXo@++@%",
"&%@&%oXX...          ...XXo+$&&$",
"&%%%%+oXX..          ..XXo++++@#",
"&&%%%%oXX...        ...XXo****&#",
"%&&$$+ooXX...      ...XXoo******",
"#&%&&@OoXXX....  ....XXXo%&***#&",
"#&&%%&@OoXXX........XXXo@OO++++#",
"%&$$@$OO@oXXXX....XXXXo@OO@@@#@+",
"&&&&@+@OO&ooXXXXXXXXoo$&#++OOO+@",
"&&&&$O#@+**oooXXXXooo$&&$@+@$%$$",
"$%&%%O###****+oooo%%%$%&##&&&%$$",
"@+&%%O##+***&+$%%%%&&$$$#&&&%$OO",
"O@$%%#$+&*&*++&&%@#+#+#++@O+@@#&",
"@#%$&$****$O++##@+$#**%O+O+OOO@&",
"OO&&#$&***$###+#$@&****%+O$%#@@$",
"$###*+&***+#+#+%&******&+&&&#O@O"
};
