/* XPM */
static char *xpm_[] = {
/* columns rows colors chars-per-pixel */
"32 32 16 1 ",
"  c #0A0100",
". c #2E1B05",
"X c #39250C",
"o c #322310",
"O c #432B0F",
"+ c #4F3717",
"@ c #4E3A23",
"# c #5B421C",
"$ c #5A4427",
"% c #654B26",
"& c #6B5025",
"* c #6E552E",
"= c #6E5E46",
"- c #866838",
"; c #90723F",
": c #927542",
/* pixels */
"&#%++%*&##%**&::::-**&#%#+$*####",
"#+%#+%%#%&+*%-::::-**++%%+$%###+",
"++%$#$#&**+*%&;::---*++%&#&##**+",
"#+**%$#$+*+%%*-::-*-*++%%%&#+**+",
"#+***%%**.O$%*-::-&-%#+%**%%***+",
"#+%*****%%X+%*&-:-*-&++#%***%+*O",
"&#&%***&*%X.X*&&--***+&&%%%+#%*+",
"+%********OOO *=&&**&O%%*% #%**O",
"O+%*%*****OO@$ %****+X+$$.+&**%+",
"O+%*****%$OO$*   $+*+X=  *****#+",
"O+#****%+++O+*.+  .$X .=:***%%++",
"++#%*%&++++O%*#XX    X$$%**%++++",
"X#$****%#++O%**O=  o=o+%****%+++",
".+%*****%$+O$*X+$ X@+X@%*****%$+",
".$+****%%$+X+$X$  *$+.@$****%%$+",
".+%o**##++X.X$X$ **OO.+$***%$$+X",
".X@%+ O+++X..+% $*+OO.X+%*%#+$+X",
"+O+$%%  @@XXX$  **++XOO+$%$++++X",
"@+O+%$++@@  .. $@++++@+O+%#++++X",
"$$+O$+#+++    $=XX++@$+O+##+#+OO",
"$$OO+++$+O@o..@=+O++$%+O+#++#+O+",
"$$OO+++$++O+*= .*X++$$$OO++@$+O+",
"+++O+#+@+OOO+*  $$O++++OO+@+@+O+",
"++OO+++++OXO+*   X@+++OOO+@O++XO",
"+OXXOO+++X.OO$*   %$++OXXOXX++.O",
"+OXXXXXOOX.OO$*   @%++XXX XOOO.O",
"XXXXXXXOXX.O+*$   .%+XXOo.XOOO.X",
".X..XXXXXXX$*@     .**$$.XXXXXXX",
".XXX...XX@=$        $*$  $..XXXX",
"OOOOOX.O%$          .$  =$XXOOOO",
"++++OO+++++o@@@X@@@oX+++@+O++++O",
"++O+OO++@++++++$+++++++++OO+@++O"
};
