/* XPM */
static char *grass_xpm[] = {
"32 32 9 1",
"A c #c8fb57",
"B c #baf855",
"C c #b2f752",
"D c #aeef50",
"E c #aee64c",
"F c #a2e448",
"G c #9fd944",
"H c #90d13e",
"I c #000000",
"EEGFFFCCCGFDCCCCCABFFBAABFEFFGFC",
"FGHGHHFDFGEBBBCCCFGGCBBABFHHGGHG",
"DDEGHHFBBAAAABBABFEGEEEFEDCDFHHG",
"EEDBHHGBAAAABBBCBBBBDEDEDEEEBDHF",
"DEGHHHFEAAAAGGDDBBAAABDDBDDGHGHG",
"FFGHHGEGBAAEGGEDBAAABEFFDDGFHGHE",
"DCBDEDEFDGCCBBBBBCAAABEBEFDBDDDD",
"FCBBBGCBFBBBCCCCBBBEHHEEEFDBBBDE",
"BCCBFHDBDDDCBDGBBBBEEEBDDBBDDBDG",
"FGHHGFCCBGEBEFFDDBAAEDEDEFGHHHGF",
"FFFFGIIIIIIIIIIIIIIIIIIIIIIIIFGG",
"DEFGIIIIIIIIIIIIIIIIIIIIIIIIIIHH",
"BEDEIIIIIIIIIIIIIIIIIIIIIIIIIEEF",
"BAAIIIIIIIIIIIIIIIIIIIIIIIIIIIAD",
"AAIIIIIIIIIIIIIIIIIIIIIIIIIIIIAC",
"EGIIIIIIIIIIIIIIIIIIIIIIIIIIIIFD",
"BEIIIIIIIIIIIIIIIIIIIIIIIIIIIIFC",
"BCIIIIIIIIIIIIIIIIIIIIIIIIIIIBBD",
"BCIIIIIIIIIIIIIIIIIIIIIIIIIIIIFE",
"BBCIIIIIIIIIIIIIIIIIIIIIIIIIIABE",
"CBBIIIIIIIIIIIIIIIIIIIIIIIIIIIAA",
"EBCBIIIIIIIIIIIIIIIIIIIIIIIIIAEB",
"EBBCIIIIIIIIIIIIIIIIIIIIIIIGGGGE",
"CBDDFDHHFDDDDBCBBDGFGHHFHHFFFEFG",
"BBBBFGFHHBAABDFFFGDDDHDBEGGHHHGF",
"BBBBDHEFGAAAAFGGFCCCCDBBDFGFDCDD",
"DCBCCHEEEAAAAGFFCCCCCDCBEEBBBCDD",
"FGBCCHEEGAAABGDCCCCBBDDDEBBBCDHH",
"HFDCCEDGBABAGGBBCFEGEGEGGFHGFFEB",
"FECDBDAAAADHGGEEFGDEAACHGHGHHHFB",
"HHBBEDBAAADEEEGEDFBAAAACGHDCEFFD",
"DEEEAGBAAAGEGEGCBAAAAAABGBBBEHFH",
};