/* XPM */
static char *_8d291fafb5b4795ff091e03c3eeaa8dBoZxikz661kmJY9j[] = {
/* columns rows colors chars-per-pixel */
"32 32 11 1 ",
"  c #2B1E0F",
". c #634422",
"X c #508040",
"o c #90D13E",
"O c #9FD944",
"+ c #A2E448",
"@ c #AEE64C",
"# c #AEEF50",
"$ c #B2F752",
"% c #BAF855",
"& c #C8FB57",
/* pixels */
"@@O+++$$$O+#$$$$$&%++%&&%+@++O+$",
"+OoOoo+#+O@%%%$$$+OO$%%&%+ooOOoO",
"##@Ooo+%%&&&&%%&%+@O@@@+@#$#+ooO",
"@@#%ooO%&&&&%%%$%%%%#@#@#@@@%#o+",
"#@Oooo+@&&&&OO##%%&&&%##%##OoOoO",
"++OooO@O%&&@OO@#%&&&%@++##O+oOo@",
"#$%#@#@+#O$$%%%%%$&&&%@%@+#%####",
"+$%%%O$%+%%%$$$$%%%@oo@@@+#%%%#@",
"%$$%+o#%###$%XXXXXX@@@%##%%##%#O",
"+OooO+$$%O@XX..XX..XX#@#@+OoooO+",
"++++OoO#oXX.....X....XX%%+++++OO",
"#@+OOoooXX...........X.X%o@@@@oo",
"%@#@+++X............X...X@%%@@@+",
"%&&&&$X....  .... ......XX&&&&&#",
"&&&&&&X..... .... .  ....X&&&&&$",
"@O++@XX..... ...  . ......X@+@+#",
"%@OOOX......     ..    ...X+OO+$",
"%$+%$X........      ......XO#%%#",
"%$$$$X.......      .......XOOO+@",
"%%$$$X.....   .      .....X&&&%@",
"$%%##X..... ...  ... .....X&&&&&",
"@%$%%X..... ....  .. .....X&&&@%",
"@%%$$%X......... ........XoOOOO@",
"$%##+#oX........ .......Xo+++@+O",
"%%%%+O+oX..............X@OOoooO+",
"%%%%#o@+OX............X%#+O+#$##",
"#$%$$o@@@&XXX......XXX$%@@%%%$##",
"+O%$$o@@O&&&%XXXXXX%%###@%%%$#oo",
"o+#$$@#O%&%&OO%%$+@O@O@OO+oO++@%",
"+@$#%#&&&&#oOO@@+O#@&&$oOoOooo+%",
"oo%%@#%&&&#@@@O@#+%&&&&$Oo#$@++#",
"#@@@&O%&&&O@O@O$%&&&&&&%O%%%@o+o"
};
