/* XPM */
static char *result[] = {
/* columns rows colors chars-per-pixel */
"32 32 11 1 ",
"  c black",
". c #6E5D19",
"X c #7A7125",
"o c #B71C1C",
"O c #C62828",
"+ c #D32F2F",
"@ c #E53935",
"# c #F44336",
"$ c #9A8440",
"% c #AC9E50",
"& c white",
/* pixels */
"XXXX..XXX....X$$$$$......XXXXX.X",
"$XXX..XXXX...X$$%%%$.....XXXXX.X",
"X$$$%%%$XXX..$$$%%%$....XXX$%$%%",
"%%%%%%%%$$X.X$$%%$$$X..XX$%%%%%%",
"%%%%%%%%$$X.X$%%%%$XX.XX$%%%%%%%",
"%%%%%%%%$$X.X$%%%%%$X..X$%%%%%%%",
"%%%%%%%%$$$X$$%%%%%$X..X$%%%%%%%",
"%%%%%%%$$XXX$%%%%%%$X..X$%%%%%$%",
"$%%%%$$XX      %%     .X$$%%%%$$",
"$$$%%$$XX      $$     .X$$$$$%$$",
"$$$$$$$XX      $$     .X$$$$$$$$",
"$$$$$$   O+++@@  #####   $$$$$$X",
"$$$$$$   O+++@@  #####   $$$$$$X",
"$$$$$$   OOO+@@@@#&&&#   $$$$$$X",
"XXXXXX   OOO+@@@@#&&&#   XXXXXX.",
"XXX.X.   OOOO@@@@#####   XXX.X..",
"XXXX..   oOOO++@@@@@@#   XXXXX.X",
"$XXX..   oooOOO@@@@@#@   XXXXX.X",
"X$$$%%   oooOOO@@@@@#@   XX$%$%%",
"%%%%%%%%$   oOOOOO++  .XX$%%%%%%",
"%%%%%%%%$   oOOOOO++  XX$%%%%%%%",
"%%%%%%%%$$X.   OO   X..X$%%%%%%%",
"%%%%%%%%$$$X   OO   X..X$%%%%%%%",
"%%%%%%%$$XXX   OO   X..X$%%%%%$%",
"$%%%%$$XX.X$$$%  $$$$X.X$$%%%%$$",
"$$$%%$$XXX$$$$$  $$$XX.X$$$$$%$$",
"$$$$$$$XX.XX$$$$$$$$XX.X$$$$$$$$",
"$$$$$$XX..XX$$$$$$$$XX.XX$$$$$$X",
"$$$$$$X...XXX$$$$$$XX...X$$$$$$X",
"$$$$$$X....X$$$$$XXX....X$$$$$$X",
"XXXXXX..X...XX$XXXX......XXXXXX.",
"XXX.X...XXX..XXXXXXXX.XXXXXX.X.."
};
