/* XPM */
static char *result[] = {
/* columns rows colors chars-per-pixel */
"32 32 15 1 ",
"  c black",
". c #B71C1C",
"X c #C62828",
"o c #D32F2F",
"O c #E53935",
"+ c #F44336",
"@ c #90D13E",
"# c #9FD944",
"$ c #A2E448",
"% c #AEE64C",
"& c #AEEF50",
"* c #B2F752",
"= c #BAF855",
"- c #C8FB57",
"; c white",
/* pixels */
"%%#$$$***#$&*****-=$$=--=$%$$#$*",
"$#@#@@$&$#%===***$##*==-=$@@##@#",
"&&%#@@$==----==-=$%#%%%$%&*&$@@#",
"%%&=@@#=----===*====&%&%&%%%=&@$",
"&%#@@@$%----##&&==---=&&=&&#@#@#",
"$$#@@#%#=--%##%&=---=%$$&&#$@#@%",
"&*=&%&%$&#**=====*---=%=%$&=&&&&",
"$*===#*=$===****===%@@%%%$&===&%",
"=**=$@&=&      ==     =&&==&&=&#",
"$#@@#$**=      &&     %&%$#@@@#$",
"$$$$#@#&@      &#     %==$$$$$##",
"&%$##@   XoooOO  +++++   @%%%%@@",
"=%&%$$   XoooOO  +++++   %==%%%$",
"=----*   XXXoOOOO+;;;+   ------&",
"------   XXXoOOOO+;;;+   ------*",
"%#$$%=   XXXXOOOO+++++   %%%$%$&",
"=%###*   .XXXooOOOOOO+   =$$##$*",
"=*$=*&   ...XXXOOOOO+O   *$#&==&",
"=****#   ...XXXOOOOO+O   *####$%",
"==****$#*   .XXXXXoo  @$$*----=%",
"*==&&##@$   .XXXXXoo  $$$*------",
"%=*==$@@@&&$   XX   **&&$*=---%=",
"%==**=$@$$&$   XX   #@@$$@@####%",
"*=&&$&@@$&&&   XX   #@@$@@$$$%$#",
"====$#$@@=--=&$  #&&&@&=%##@@@#$",
"====&@%$#----$#  ****&==&$#$&*&&",
"&*=**@%%%----#$$*****&*=%%===*&&",
"$#=**@%%#---=#&****==&&&%===*&@@",
"@$&**%&#=-=-##==*$%#%#%##$@#$$%=",
"$%*&=&----&@##%%$#&%--*@#@#@@@$=",
"@@==%&=---&%%%#%&$=----*#@&*%$$&",
"&%%%-#=---#%#%#*=------=#===%@$@"
};
