/* XPM */
static char *_5af69d3669a48b6af61885e7b3477d1IgynbPDvq1r6iDhs[] = {
/* columns rows colors chars-per-pixel */
"32 32 29 1 ",
"  c #1F1A1A",
". c #243305",
"X c #7B0808",
"o c #603A0A",
"O c #4C3029",
"+ c #425916",
"@ c #7B4E16",
"# c #5E433D",
"$ c #5D772D",
"% c #534545",
"& c #516D7D",
"* c #8D6534",
"= c #7D984B",
"- c #90D13E",
"; c #A3BE71",
": c #9FD944",
"> c #A2E448",
", c #AEE64C",
"< c #AEEF50",
"1 c #B2F752",
"2 c #BAF855",
"3 c #C8FB57",
"4 c #6F828D",
"5 c #B7A59B",
"6 c #9BADB7",
"7 c #B8D08A",
"8 c #D5CAC5",
"9 c #D7D5D2",
"0 c #F4EDEA",
/* pixels */
",,:>>>111:><1111132>>2332>,>>:>1",
">:-:--><>:,222111>::12232>--::-:",
"<<,:-->2233332232>,:,,,>,<1<>--:",
",,<2--:2333322212222<,<,<,,,2<->",
"<,:--->,3333::<<223332<<2<<:-:-:",
">>:--:,:233,::,<23332,>><<:>-:-,",
"<12<,<,><:112222213332,2,><2<<<<",
">1222:12>2221111222,--,,,><222<,",
"2112>-<2<<<12<:2222,,,2<<22<<2<:",
">:--:>112:,2,      3,<,<,>:---:>",
">>>>:-:<-->< +;;77+ 23,22>>>>>::",
"<,>::-----> +=;;777 33332-,,,,--",
"2,<,>>>><>< $===;;;= 333,,22,,,>",
"233331<<<3  $=  == $ ,2,23  333<",
"3333331>> ;=$$ X==X$ ,-:2 O 3331",
",:>>,211>-  +$=9===9$ :: O46   <",
"2,:::1222<: 66.++++. :: O&4668 1",
"21>21<222< 444 $;7 --> O&&4660 <",
"21111:,1<>    o =7= - # &44660 ,",
"221111>:11 =+  o = + O > 4480 2,",
"122<<::->13  oo@*o  O >> 58  333",
",2122>---<< .. @@*o  1<<>  333,2",
",22112>->><> ++  $$ :-->>--::::,",
"12<<><--><<%%  %%$$ :-->-->>>,>:",
"2222>:>--%%%%%%%%%%%%%<2,::---:>",
"2222<-,>%%%%%%%%%%%%%%%2<>:><1<<",
"<1211-,,,%%%%%%%%%%%%%12,,2221<<",
">:211-,,:33%%%%%%%%%2<<<,2221<--",
"-><11,<:2323::221>,:,:,::>-:>>,2",
">,1<2<3333<-::,,>:<,331-:-:--->2",
"--22,<2333<,,,:,<>233331:-<1,>><",
"<,,,3:2333:,:,:123333332:222,->-"
};
