/* XPM */
static char *result[] = {
/* columns rows colors chars-per-pixel */
"32 32 21 1 ",
"  c black",
". c #1F1A1A",
"X c #243305",
"o c #603A0A",
"O c #425916",
"+ c #7B4E16",
"@ c #5D772D",
"# c #8D6534",
"$ c #7D984B",
"% c #90D13E",
"& c #A3BE71",
"* c #9FD944",
"= c #A2E448",
"- c #AEE64C",
"; c #AEEF50",
": c #B2F752",
"> c #BAF855",
", c #C8FB57",
"< c #6F828D",
"1 c #9BADB7",
"2 c #B8D08A",
/* pixels */
"--*===:::*=;:::::,>==>,,>=-==*=:",
"=*%*%%=;=*->>>:::=**:>>,>=%%**%*",
";;-*%%=>>,,,,>>,>=-*---=-;:;=%%*",
"--;>%%*>,,,,>>>:>>>>;-;-;--->;%=",
";-*%%%=-,,,,**;;>>,,,>;;>;;*%*%*",
"==*%%*-*>,,-**-;>,,,>-==;;*=%*%-",
";:>;-;-=;*::>>>>>:,,,>->-=;>;;;;",
"=:>>>*:>=>>>::::>>>-%%---=;>>>;-",
">::>=%;>;;;:>;*>>>>--->;;>>;;>;*",
"=*%%*=::>*->-......,-;-;-=*%%%*=",
"====*%*;%%=;.O22&&O.>,->>=====**",
";-=**%%%%%==.222&&$O.,,,>%----%%",
">-;-====;=;.$&&&$$$@.,,,-->>---=",
">,,,,:;;;,>.@@$$$$$@..>->,,,,,,;",
",,,,,,:==>>.@@$$$@@@$&.*>,,,,,,:",
"-*==->::=%.@@@$$$@@O..***---=-=;",
">-***:>>>;..XOOOOX11.**;>>==**=:",
">:=>:;>>>;=*-.2&@.<<<.;>>:=*;>>;",
">::::*-:;=;;.$2$.o....*:::****=-",
">>::::=*::>.O.$.o..O$.%==:,,,,>-",
":>>;;**%=:,>..o#+oo..>===:,,,,,,",
"->:>>=%%%;;=.o#++.XX.:;;=:>,,,->",
"->>::>=%==;=.@@..OO.*%%==%%****-",
":>;;=;%%=;;;;  >>..=*%%=%%===-=*",
">>>>=*=%%>,,>;===*;;;%;>-**%%%*=",
">>>>;%-=*,,,,=**=::::;>>;=*=;:;;",
";:>::%---,,,,*==:::::;:>-->>>:;;",
"=*>::%--*,,,>*;::::>>;;;->>>:;%%",
"%=;::-;*>,>,**>>:=-*-*-**=%*==->",
"=-:;>;,,,,;%**--=*;-,,:%*%*%%%=>",
"%%>>-;>,,,;---*-;=>,,,,:*%;:-==;",
";---,*>,,,*-*-*:>,,,,,,>*>>>-%=%"
};
