/* XPM */
static char *_4249756e36b400a8a1b7f90dd9ee3aeZG15akMiqV10Kmaq[] = {
/* columns rows colors chars-per-pixel */
"32 32 25 1 ",
"  c black",
". c #1F1A1A",
"X c #243305",
"o c #603A0A",
"O c #4C3029",
"+ c #425916",
"@ c #7B4E16",
"# c #5D772D",
"$ c #516D7D",
"% c #8D6534",
"& c #7D984B",
"* c #90D13E",
"= c #A3BE71",
"- c #9FD944",
"; c #A2E448",
": c #AEE64C",
"> c #AEEF50",
", c #B2F752",
"< c #BAF855",
"1 c #C8FB57",
"2 c #6F828D",
"3 c #9BADB7",
"4 c #B8D08A",
"5 c #D5CAC5",
"6 c #F4EDEA",
/* pixels */
"::-;;;,,,-;>,,,,,1<;;<11<;:;;-;,",
";-*-**;>;-:<<<,,,;--,<<1<;**--*-",
">>:-**;<<1111<<1<;:-:::;:>,>;**-",
"::><**-<1111<<<,<<<<>:>:>:::<>*;",
">:-***;:1111-->><<111<>><>>-*-*-",
";;-**-:-<11:--:><111<:;;>>-;*-*:",
">,<>:>:;>-,,<<<<<,111<:<:;><>>>>",
";,<<<-,<;<<<,,,,<<<:**:::;><<<>:",
"<,,<;*><>>>,<>-<<<<:::<>><<>><>-",
";-**-;,.....:......1:>:>:;-***-;",
";;;;-*-.5666.+44==+.<1:<<;;;;;--",
">:;--**.3335.444==&+.111<*::::**",
"<:>:;..3333.&===&&&#.111::<<:::;",
"<1111.O2222.##&&&&&#..<:<111111>",
"111111.O$$2.##&&&###&=.-<111111,",
":-;;:<,.O$.###&&&##+..---:::;:;>",
"<:---,<<.O..X++++X33.--><<;;--;,",
"<,;<,><<<.O :.4=#.222.><<,;-><<>",
"<,,,,-:,>;.O.&4&.o....-,,,----;:",
"<<,,,,;-,,<.+.&.o..+&.*;;,1111<:",
",<<>>--*;,1<..o%@oo..<;;;,111111",
":<,<<;***>>;.o%@@.XX.,>>;,<111:<",
":<<,,<;*;;>;.##..++.-**;;**----:",
",<>>;>**;>>>>  <<..;-**;**;;;:;-",
"<<<<;-;**<11<>;;;->>>*><:--***-;",
"<<<<>*:;-1111;--;,,,,><<>;-;>,>>",
">,<,,*:::1111-;;,,,,,>,<::<<<,>>",
";-<,,*::-111<->,,,,<<>>>:<<<,>**",
"*;>,,:>-<1<1--<<,;:-:-:--;*-;;:<",
";:,><>1111>*--::;->:11,*-*-***;<",
"**<<:><111>:::-:>;<1111,-*>,:;;>",
">:::1-<111-:-:-,<111111<-<<<:*;*"
};
