/* XPM */
static char *result[] = {
/* columns rows colors chars-per-pixel */
"32 32 23 1 ",
"  c #1F1A1A",
". c #243305",
"X c #7B0808",
"o c #603A0A",
"O c #425916",
"+ c #7B4E16",
"@ c #5D772D",
"# c #534545",
"$ c #8D6534",
"% c #7D984B",
"& c #90D13E",
"* c #A3BE71",
"= c #9FD944",
"- c #A2E448",
"; c #AEE64C",
": c #AEEF50",
"> c #B2F752",
", c #BAF855",
"< c #C8FB57",
"1 c #6F828D",
"2 c #9BADB7",
"3 c #B8D08A",
"4 c #D7D5D2",
/* pixels */
";;=--->>>=-:>>>>><,--,<<,-;--=->",
"-=&=&&-:-=;,,,>>>-==>,,<,-&&==&=",
"::;=&&-,,<<<<,,<,-;=;;;-;:>:-&&=",
";;:,&&=,<<<<,,,>,,,,:;:;:;;;,:&-",
":;=&&&-;<<<<==::,,<<<,::,::=&=&=",
"--=&&=;=,<<;==;:,<<<,;--::=-&=&;",
":>,:;:;-:=>>,,,,,><<<,;,;-:,::::",
"->,,,=>,-,,,>>>>,,,;&&;;;-:,,,:;",
",>>,-&:,:::>,:=,,,,;;;,::,,::,:=",
"-=&&=->>,=;,;      <;:;:;-=&&&=-",
"----=&=:&&-: O33**O ,<;,,-----==",
":;-==&&&&&-- 333**%O <<<,&;;;;&&",
",;:;----:-: %***%%%@ <<<;;,,;;;-",
",<<<<>:::<, @ %%  %@  ,;,<<<<<<:",
"<<<<<<>--,, @X%%X @@%* =,<<<<<<>",
";=--;,>>-& @4%%%4%@O  ===;;;-;-:",
",;===>,,,:= .OOOO.22 ==:,,--==->",
",>-,>:,,,:-=; 3*@ 111 :,,>-=:,,:",
",>>>>=;>:-:: %3% o    =>>>====-;",
",,>>>>-=>>, O % o  O% &--><<<<,;",
">,,::==&-><,  o$+oo  ,---><<<<<<",
";,>,,-&&&::- o$++ .. >::->,<<<;,",
";,,>>,-&--:- @@  OO =&&--&&====;",
">,::-:&&-::: @@##  ##&&-&&---;-=",
",,,,-=-&&,#############,;==&&&=-",
",,,,:&;-=###############:-=-:>::",
":>,>>&;;;<#############,;;,,,>::",
"-=,>>&;;=<<<#########:::;,,,>:&&",
"&-:>>;:=,<,<==,,>-;=;=;==-&=--;,",
"-;>:,:<<<<:&==;;-=:;<<>&=&=&&&-,",
"&&,,;:,<<<:;;;=;:-,<<<<>=&:>;--:",
":;;;<=,<<<=;=;=>,<<<<<<,=,,,;&-&"
};
