/* XPM */
static char *_c65c90914de48defc84ed8e0a7776b4oUdzEQ2O1rf9rk9Z[] = {
/* columns rows colors chars-per-pixel */
"32 32 19 1 ",
"  c black",
". c #030101",
"X c #2B1E0F",
"o c #3E2723",
"O c #634422",
"+ c #1F8A0A",
"@ c #508040",
"# c #90D13E",
"$ c yellow",
"% c #E0AC69",
"& c #9FD944",
"* c #A2E448",
"= c #AEE64C",
"- c #AEEF50",
"; c #B2F752",
": c #BAF855",
"> c #C8FB57",
", c #F1C27D",
"< c white",
/* pixels */
"==&***;;;&*-;;;;;>:**:>>:*=**&*;",
"*&#&##*-*&=:::;;;*&&;::>:*##&&#&",
"--=&##*::>>>>::>:*=&===*=-;-*##&",
"==-:##&:>>>>:::;::::-=-=-===:-#*",
"-=&###*=>>>>&&    >>>:--:--&#&#&",
"**&##&=&:>>=& ++++ >:=**--&*#&#=",
"-;:-=-=*-&;; ++++++ >:=:=*-:----",
"*;:::&;:*:: ++++++++ #===*-:::-=",
":;;:*#-:-- + $$$$$$ + :--::--:-&",
"*&##&*;;:&= $$$$$$$$ -=-=*&###&*",
"****&#&-#@ $$ $$$$ $$ @::*****&&",
"-=*&&###   $ $$$$   $   :#====##",
":=-=*** ,,  $$$$  , $ %% =::===*",
":>>>>;@O    $$   ,, $   @@>>>>>-",
">>>>>>@OO $     ,    $ OO@>>>>>;",
"=&**=@@OO $    ,,  < $ OOO@=*=*-",
":=&&&@OOXX  , <,,  ,  XXOO@*&&*;",
":;*:;@OXX    ,,,,,,    XXO@&-::-",
":;;;;@XX                XX@&&&*=",
"::;;;@X    + ++++++ +    X@>>>:=",
";::--@  < ++ ++++++ ++    @>>>>>",
"=:;::@   ,,  ++++++  ,,   @>>>=:",
"=::;;:@   , +  $$  + ,   @#&&&&=",
";:--*-#@    ++ $$ ++    @#***=*&",
"::::*&*#@     ++++     @=&&###&*",
"::::-#=*&@ ooo    ooo @:-*&*-;--",
"-;:;;#===> oo      oo ;:==:::;--",
"*&:;;#==&>>  @@@@@@  ---=:::;-##",
"#*-;;=-&:>:>&&::;*=&=&=&&*#&**=:",
"*=;-:->>>>-#&&==*&-=>>;#&#&###*:",
"##::=-:>>>-===&=-*:>>>>;&#-;=**-",
"-===>&:>>>&=&=&;:>>>>>>:&:::=#*#"
};
