/* XPM */
static char *link_xpm[] = {
"32 32 16 1",
"A c #000000",
"B c #000000",
"C c #1f8a0a",
"D c #ffff00",
"E c #f1c27d",
"F c #3e2723",
"G c #ffffff",
"H c #e0ac69",
"I c #000000",
"J c #000000",
"K c #000000",
"L c #000000",
"M c #000000",
"N c #000000",
"O c #000000",
"P c #000000",,
"PPPPPPPPPPPPPPPPPPPPPPPPPPPPPPPP",
"PPPPPPPPPPPPPPPPPPPPPPPPPPPPPPPP",
"PPPPPPPPPPPPPPPPPPPPPPPPPPPPPPPP",
"PPPPPPPPPPPPPPPPPPPPPPPPPPPPPPPP",
"PPPPPPPPPPPPPPPPPPPPPPPPPPPPPPPP",
"PPPPPPPPPPPPPPCCCCPPPPPPPPPPPPPP",
"PPPPPPPPPPPPPCCCCCCPPPPPPPPPPPPP",
"PPPPPPPPPPPPCCCCCCCCPPPPPPPPPPPP",
"PPPPPPPPPPPCPDDDDDDPCPPPPPPPPPPP",
"PPPPPPPPPPPPDDDDDDDDPPPPPPPPPPPP",
"PPPPPPPPPPPDDPDDDDPDDPPPPPPPPPPP",
"PPPPPPPPPPPDPDDDDPPPDPPPPPPPPPPP",
"PPPPPPPPEEPPDDDDPPEPDPHHPPPPPPPP",
"PPPPPPPPPPPPDDPPPEEPDPPPPPPPPPPP",
"PPPPPPPPPPDPPPPPEPPPPDPPPPPPPPPP",
"PPPPPPPPPPDPPPPEEPPGPDPPPPPPPPPP",
"PPPPPPPPPPPPEPGEEPPEPPPPPPPPPPPP",
"PPPPPPPPPPPPPEEEEEEPPPPPPPPPPPPP",
"PPPPPPPPPPPPPPPPPPPPPPPPPPPPPPPP",
"PPPPPPPPPPPCPCCCCCCPCPPPPPPPPPPP",
"PPPPPPPPGPCCPCCCCCCPCCPPPPPPPPPP",
"PPPPPPPPPEEPPCCCCCCPPEEPPPPPPPPP",
"PPPPPPPPPPEPCPPDDPPCPEPPPPPPPPPP",
"PPPPPPPPPPPPCCPDDPCCPPPPPPPPPPPP",
"PPPPPPPPPPPPPPCCCCPPPPPPPPPPPPPP",
"PPPPPPPPPPPFFFPPPPFFFPPPPPPPPPPP",
"PPPPPPPPPPPFFPPPPPPFFPPPPPPPPPPP",
"PPPPPPPPPPPPPPPPPPPPPPPPPPPPPPPP",
"PPPPPPPPPPPPPPPPPPPPPPPPPPPPPPPP",
"PPPPPPPPPPPPPPPPPPPPPPPPPPPPPPPP",
"PPPPPPPPPPPPPPPPPPPPPPPPPPPPPPPP",
"PPPPPPPPPPPPPPPPPPPPPPPPPPPPPPPP",
};