/* XPM */
static char *lOnk_xpm[] = {
"32 32 15 1",
"A c #c8fb57",
"B c #baf855",
"C c #b2f752",
"D c #aeef50",
"E c #aee64c",
"F c #a2e448",
"G c #9fd944",
"H c #90d13e",
"I c #1f8a0a",
"J c #ffff00",
"K c #f1c27d",
"L c #3e2723",
"M c #ffffff",
"N c #e0aI69",
"O c #000000",
"EEGFFFCCCGFDCCCCCABFFBAABFEFFGFC",
"FGHGHHFDFGEBBBCCCFGGCBBABFHHGGHG",
"DDEGHHFBBAAAABBABFEGEEEFEDCDFHHG",
"EEDBHHGBAAAABBBCBBBBDEDEDEEEBDHF",
"DEGHHHFEAAAAGGDDBBAAABDDBDDGHGHG",
"FFGHHGEGBAAEGGIIIIAABEFFDDGFHGHE",
"DCBDEDEFDGCCBIIIIIAAABEBEFDBDDDD",
"FCBBBGCBFBBBIIIIIIIIHHEEEFDBBBDE",
"BCCBFHDBDDDIOJJJJJOIEEBDDBBDDBDG",
"FGHHGFCCBGEBJJJJJJJAEDEDEFGHHHGF",
"FFFFGHGDHHFJJOJJJOJJBAEBBFFFFFGG",
"DEFGGHHHHHFFJOJJJJOOJAAABHEEEEHH",
"BEDEFFFKKOOOJJJJOOKJOONAEEBBEEEF",
"BAAAACDDDABDJJOOKKOJGEBEBAAAAAAD",
"AAAAAACFFBBJOOOOKOOOOJHGBAAAAAAC",
"EGFFEBCCFHHJOOKKOOMOOJGGGEEEFEFD",
"BEGGGCBBBDGHKOMKKOOKGGGDBBFFGGFC",
"BCFBCDBBBDFGEKKKKKKHHFDBBCFGDBBD",
"BCCCCGECDFDDDOOOOOOGHHGCCCGGGGFE",
"BBCCCCFGCCBIOIIIIIDBADHFFCAAAABE",
"CBBDDGGHMOIIOIIIIIIOIIFFFCAAAAAA",
"EBCBBFHHHKKOOIIIIIIOOKKDFCBAAAEB",
"EBBCCBFHFFKOOOJJOOIOKHHFFHHGGGGE",
"CBDDFDHHFDDDIIOOJJOIIHHFHHFFFEFG",
"BBBBFGFHHBAABDIIIIDDDHDBEGGHHHGF",
"BBBBDHEFGALLLFGGFLLLLDBBDFGFDCDD",
"DCBCCHEEELLAAGFFCLLCCDCBEEBBBCDD",
"FGBCCHEEGAAABGDCCCCBBDDDEBBBCDHH",
"HFDCCEDGBABAGGBBCFEGEGEGGFHGFFEB",
"FECDBDAAAADHGGEEFGDEAACHGHGHHHFB",
"HHBBEDBAAADEEEGEDFBAAAACGHDCEFFD",
"DEEEAGBAAAGEGEGCBAAAAAABGBBBEHFH",
};