/* XPM */
static char *result[] = {
/* columns rows colors chars-per-pixel */
"32 32 17 1 ",
"  c #4C423D",
". c #663D4D",
"X c #7F5968",
"o c #936D7C",
"O c #90D13E",
"+ c #A1887C",
"@ c #9FD944",
"# c #A2E448",
"$ c #AEE64C",
"% c #AEEF50",
"& c #B2F752",
"* c #BAF855",
"= c #C8FB57",
"- c #C1B6A2",
"; c #D9D9C3",
": c #E5E5CE",
"> c #FFFFE5",
/* pixels */
"$$@###&&&@#%&&&&&=*##*==*#$##@#&",
"#@O@OO#%#@$***&&&#@@&**=*#OO@@O@",
"%%$@OO#**====**=*#$@$$$#$%&%#OO@",
"$$%*OO@*====***&****%$%$%$$$*%O#",
"%$@OOO#$====@@%%**===*%%*%%@O@O@",
"##@OO@$@*==$@@$%*===*$##%%@#O@O$",
"%&*%$%$#%@&&*****&===*$*$#%*%%%%",
"#&***@&*#***&&&&***$OO$$$#%***%$",
"*&&*#O%*%%%&*%@****$$$*%%**%%*%@",
"#@OO@#&&*@$*        $%$%$#@OOO@#",
"####@O@%OO# :::::::: =$**#####@@",
"%$#@@OOOOO :;;;;;;;;: ==*O$$$$OO",
"*$%$####% :;;;;;;;;;;: =$$**$$$#",
"*====&%% :;;;;;;;;;;;;: *======%",
"======& :;;;;;;;;;;;;;: *======&",
"$@##$*& :;;;;;;;;;;;;;: @$$$#$#%",
"*$@@@&* >;;;;;;;;;;;;>> **##@@#&",
"*&#*&%* +>>>;;;;;;;>>.. *&#@%**%",
"*&&&&@$ ++oo>>>>>>>..XX &&@@@@#$",
"**&&&&# +++-ooooooooXXX #&====*$",
"&**%%@@ +++-------oXXX. #&======",
"$*&**#OO ++++----oXXX. %#&*===$*",
"$**&&*#O#  +++-ooX... O##OO@@@@$",
"&*%%#%OO#%%   oX.    OO#OO###$#@",
"****#@#OO*==*%   @%%%O%*$@@OOO@#",
"****%O$#@====#@@#&&&&%**%#@#%&%%",
"%&*&&O$$$====@##&&&&&%&*$$***&%%",
"#@*&&O$$@===*@%&&&&**%%%$***&%OO",
"O#%&&$%@*=*=@@**&#$@$@$@@#O@##$*",
"#$&%*%====%O@@$$#@%$==&O@O@OOO#*",
"OO**$%*===%$$$@$%#*====&@O%&$##%",
"%$$$=@*===@$@$@&*======*@***$O#O"
};
