/* XPM */
static char *rubis_xpm[] = {
"32 32 13 1",
"A c #c8fb57",
"B c #baf855",
"C c #b2f752",
"D c #aeef50",
"E c #aee64c",
"F c #a2e448",
"G c #9fd944",
"H c #90d13e",
"I c #2ba429",
"J c #000000",
"K c #1f631d",
"L c #173615",
"M c #9dfc63",
"FGHGHHFDFGEBBBCCCFGGCBBABFHHGGHG",
"DDEGHHFBBAAAABBABFEGEEEFEDCDFHHG",
"EEDBHHGBAAAABBBCBBBBDEDEDEEEBDHF",
"DEGHHHFEAAAAGGDJJBAAABDDBDDGHGHG",
"FFGHHGEGBAAEGGJMLJAABEFFDDGFHGHE",
"DCBDEDEFDGCCBJMMLLJAABEBEFDBDDDD",
"FFGHHGEGBAAEJMMMLLLJBEFFDDGFHGHE",
"DCBDEDEFDGCJMMMMLLLLJBEBEFDBDDDD",
"FCBBBGCBFBJMMMMIILLLLJEEEFDBBBDE",
"BCCBFHDBDJMMMMIIIILLLLJDDBBDDBDG",
"FGHHGFCCJMMMMIIIIIILLLLJEFGHHHGF",
"FFFFGHGDJKKKKIIIIIIKKKKJBFFFFFGG",
"DEFGGHHHJKKKKIIIIIIKKKKJBHEEEEHH",
"BEDEFFFFJKKKKIIIIIIKKKKJEEBBEEEF",
"BAAAACDDJKKKKIIIIIIKKKKJBAAAAAAD",
"AAAAAACFJKKKKIIIIIIKKKKJBAAAAAAC",
"EGFFEBCCJKKKKIIIIIIKKKKJGEEEFEFD",
"BEGGGCBBJKKKKIIIIIIKKKKJBBFFGGFC",
"BCFBCDBBJKKKKIIIIIIKKKKJBCFGDBBD",
"BCCCCGECJKKKKIIIIIIKKKKJCCGGGGFE",
"BBCCCCFGJKKKKIIIIIIKKKKJFCAAAABE",
"CBBDDGGHJLLLLIIIIIIMMMMJFCAAAAAA",
"EBCBBFHHHJLLLLIIIIMMMMJDFCBAAAEB",
"EBBCCBFHFFJLLLLIIMMMMJHFFHHGGGGE",
"CBDDFDHHFDDJLLLLMMMMJHHFHHFFFEFG",
"BBBBFGFHHBAAJLLLMMMJDHDBEGGHHHGF",
"BBBBDHEFGAAAAJLLMMJCCDBBDFGFDCDD",
"DCBCCHEEEAAAAGJLMJCCCDCBEEBBBCDD",
"FGBCCHEEGAAABGDJJCCBBDDDEBBBCDHH",
"HFDCCEDGBABAGGBBCFEGEGEGGFHGFFEB",
"FECDBDAAAADHGGEEFGDEAACHGHGHHHFB",
"HHBBEDBAAADEEEGEDFBAAAACGHDCEFFD",
};