/* XPM */
static char *rubis_xpm[] = {
"32 32 5 1",
"A c #2ba429",
"B c #000000",
"C c #1f631d",
"D c #173615",
"E c #9dfc63",
"BBBBBBBBBBBBBBBBBBBBBBBBBBBBBBBB",
"BBBBBBBBBBBBBBBBBBBBBBBBBBBBBBBB",
"BBBBBBBBBBBBBBBBBBBBBBBBBBBBBBBB",
"BBBBBBBBBBBBBBBBBBBBBBBBBBBBBBBB",
"BBBBBBBBBBBBBBBBBBBBBBBBBBBBBBBB",
"BBBBBBBBBBBBBBBEDBBBBBBBBBBBBBBB",
"BBBBBBBBBBBBBBEEDDBBBBBBBBBBBBBB",
"BBBBBBBBBBBBBEEEDDDBBBBBBBBBBBBB",
"BBBBBBBBBBBBEEEEDDDDBBBBBBBBBBBB",
"BBBBBBBBBBBEEEEAADDDDBBBBBBBBBBB",
"BBBBBBBBBBEEEEAAAADDDDBBBBBBBBBB",
"BBBBBBBBBEEEEAAAAAADDDDBBBBBBBBB",
"BBBBBBBBBCCCCAAAAAACCCCBBBBBBBBB",
"BBBBBBBBBCCCCAAAAAACCCCBBBBBBBBB",
"BBBBBBBBBCCCCAAAAAACCCCBBBBBBBBB",
"BBBBBBBBBCCCCAAAAAACCCCBBBBBBBBB",
"BBBBBBBBBCCCCAAAAAACCCCBBBBBBBBB",
"BBBBBBBBBCCCCAAAAAACCCCBBBBBBBBB",
"BBBBBBBBBCCCCAAAAAACCCCBBBBBBBBB",
"BBBBBBBBBCCCCAAAAAACCCCBBBBBBBBB",
"BBBBBBBBBCCCCAAAAAACCCCBBBBBBBBB",
"BBBBBBBBBCCCCAAAAAACCCCBBBBBBBBB",
"BBBBBBBBBDDDDAAAAAAEEEEBBBBBBBBB",
"BBBBBBBBBBDDDDAAAAEEEEBBBBBBBBBB",
"BBBBBBBBBBBDDDDAAEEEEBBBBBBBBBBB",
"BBBBBBBBBBBBDDDDEEEEBBBBBBBBBBBB",
"BBBBBBBBBBBBBDDDEEEBBBBBBBBBBBBB",
"BBBBBBBBBBBBBBDDEEBBBBBBBBBBBBBB",
"BBBBBBBBBBBBBBBDEBBBBBBBBBBBBBBB",
"BBBBBBBBBBBBBBBBBBBBBBBBBBBBBBBB",
"BBBBBBBBBBBBBBBBBBBBBBBBBBBBBBBB",
"BBBBBBBBBBBBBBBBBBBBBBBBBBBBBBBB",
"BBBBBBBBBBBBBBBBBBBBBBBBBBBBBBBB",
"BBBBBBBBBBBBBBBBBBBBBBBBBBBBBBBB",
};