/* XPM */
static char *result[] = {
/* columns rows colors chars-per-pixel */
"32 32 12 1 ",
"  c black",
". c #FF7800",
"X c #90D13E",
"o c #9FD944",
"O c #A2E448",
"+ c #AEE64C",
"@ c #AEEF50",
"# c #B2F752",
"$ c #BAF855",
"% c #C8FB57",
"& c #1464C8",
"* c #3296FF",
/* pixels */
"++oOOO###oO@#####%$OO$%%$O+OOoO#",
"OoXoXXO@Oo+$$$###Ooo#$$%$OXXooXo",
"@@+oXXO$$%%%%$$%$O+o+++O+@#@OXXo",
"++@$XXo$%%%%$$$#$$$$@+@+@+++$@XO",
"@+oXXXO+%%%%oo@@$$%%%$@@$@@oXoXo",
"OOoXXo+o$%%+oo+@$%%%$+OO@@oOXoX+",
"@#$@+@+O@o##$$$$$#%%%$+$+O@$@@@@",
"O#$$$o#$O$$$####$$$+XX+++O@$$$@+",
"$##$OX@$@@@#$&&&&&&&++$@@$$@@$@o",
"OoXXoO##$o&&&*******&&&@+OoXXXoO",
"OOOOoXo@   ***********   OOOOOoo",
"@+OooXX ... ********* ... ++++XX",
"$+@+OO .. .. ******* .. .. $+++O",
"$%%%%# .   . ******* .   . %%%%@",
"%%%%%& .. .. ******* .. .. &%%%#",
"+oOO+&* ... ********* ... *&O+O@",
"$+oo&***   ***********   ***&oO#",
"$#O$&***********************&$$@",
"$###&***********************&oO+",
"$$##&***********************&%$+",
"#$$@&***********************&%%%",
"+$#$$&*********************&%%+$",
"+$$##&*********************&ooo+",
"#$@@O@&*******************&OO+Oo",
"$$$$Oo&*******************&XXXoO",
"$$$$@X+&&***************&&oO@#@@",
"@#$##X+++&*************&++$$$#@@",
"Oo$##X++o%&&&*******&&&@+$$$#@XX",
"XO@##+@o$%$%o&&&&&&&+o+ooOXoOO+$",
"O+#@$@%%%%@Xoo++Oo@+%%#XoXoXXXO$",
"XX$$+@$%%%@+++o+@O$%%%%#oX@#+OO@",
"@+++%o$%%%o+o+o#$%%%%%%$o$$$+XOX"
};
